HIERARCHY
ROOT Hips
{
	OFFSET -14.64140 90.27770 -84.91600
	CHANNELS 6 Xposition Yposition Zposition Zrotation Xrotation Yrotation
	JOINT Spine
	{
		OFFSET 0.00000 13.20850 -1.60436
		CHANNELS 3 Zrotation Xrotation Yrotation
		JOINT Spine1
		{
			OFFSET 0.00000 8.61716 0.00000
			CHANNELS 3 Zrotation Xrotation Yrotation
			JOINT Spine2
			{
				OFFSET 0.00000 8.61717 0.00000
				CHANNELS 3 Zrotation Xrotation Yrotation
				JOINT Spine3
				{
					OFFSET 0.00000 8.61717 0.00000
					CHANNELS 3 Zrotation Xrotation Yrotation
					JOINT Neck
					{
						OFFSET 0.00000 11.07920 1.10792
						CHANNELS 3 Zrotation Xrotation Yrotation
						JOINT Neck1
						{
							OFFSET 0.00000 7.08032 0.00000
							CHANNELS 3 Zrotation Xrotation Yrotation
							JOINT Head
							{
								OFFSET 0.00000 7.08031 0.00000
								CHANNELS 3 Zrotation Xrotation Yrotation
								End site
								{
									OFFSET 0.00000 0.00000 0.00000
								}
							}
						}
					}
					JOINT RightShoulder
					{
						OFFSET -0.01000 7.91373 5.19711
						CHANNELS 3 Zrotation Xrotation Yrotation
						JOINT RightArm
						{
							OFFSET -18.41580 0.00000 0.00000
							CHANNELS 3 Zrotation Xrotation Yrotation
							JOINT RightForeArm
							{
								OFFSET -29.11090 0.00000 0.00000
								CHANNELS 3 Zrotation Xrotation Yrotation
								JOINT RightHand
								{
									OFFSET -24.65040 0.00000 0.00000
									CHANNELS 3 Zrotation Xrotation Yrotation
									JOINT RightHandThumb1
									{
										OFFSET -5.35114 -0.85590 3.97906
										CHANNELS 3 Zrotation Xrotation Yrotation
										JOINT RightHandThumb2
										{
											OFFSET -4.52789 0.00000 0.00000
											CHANNELS 3 Zrotation Xrotation Yrotation
											JOINT RightHandThumb3
											{
												OFFSET -2.46976 0.00000 0.00000
												CHANNELS 3 Zrotation Xrotation Yrotation
												End site
												{
													OFFSET 0.00000 0.00000 0.00000
												}
											}
										}
									}
									JOINT RightHandIndex1
									{
										OFFSET -14.26970 0.00000 2.88139
										CHANNELS 3 Zrotation Xrotation Yrotation
										JOINT RightHandIndex2
										{
											OFFSET -5.48836 0.00000 0.00000
											CHANNELS 3 Zrotation Xrotation Yrotation
											JOINT RightHandIndex3
											{
												OFFSET -3.01859 0.00000 0.00000
												CHANNELS 3 Zrotation Xrotation Yrotation
												End site
												{
													OFFSET 0.00000 0.00000 0.00000
												}
											}
										}
									}
									JOINT RightHandMiddle1
									{
										OFFSET -14.26970 0.00000 -0.09147
										CHANNELS 3 Zrotation Xrotation Yrotation
										JOINT RightHandMiddle2
										{
											OFFSET -6.17441 0.00000 0.00000
											CHANNELS 3 Zrotation Xrotation Yrotation
											JOINT RightHandMiddle3
											{
												OFFSET -3.56743 0.00000 0.00000
												CHANNELS 3 Zrotation Xrotation Yrotation
												End site
												{
													OFFSET 0.00000 0.00000 0.00000
												}
											}
										}
									}
									JOINT RightHandRing1
									{
										OFFSET -12.69180 0.00000 -3.06433
										CHANNELS 3 Zrotation Xrotation Yrotation
										JOINT RightHandRing2
										{
											OFFSET -5.62556 0.00000 0.00000
											CHANNELS 3 Zrotation Xrotation Yrotation
											JOINT RightHandRing3
											{
												OFFSET -3.56744 0.00000 0.00000
												CHANNELS 3 Zrotation Xrotation Yrotation
												End site
												{
													OFFSET 0.00000 0.00000 0.00000
												}
											}
										}
									}
									JOINT RightHandPinky1
									{
										OFFSET -11.11390 0.00000 -6.03719
										CHANNELS 3 Zrotation Xrotation Yrotation
										JOINT RightHandPinky2
										{
											OFFSET -4.52789 0.00000 0.00000
											CHANNELS 3 Zrotation Xrotation Yrotation
											JOINT RightHandPinky3
											{
												OFFSET -2.46976 0.00000 0.00000
												CHANNELS 3 Zrotation Xrotation Yrotation
												End site
												{
													OFFSET 0.00000 0.00000 0.00000
												}
											}
										}
									}
								}
							}
						}
					}
					JOINT LeftShoulder
					{
						OFFSET 0.01000 7.91373 5.19711
						CHANNELS 3 Zrotation Xrotation Yrotation
						JOINT LeftArm
						{
							OFFSET 18.41580 0.00000 0.00000
							CHANNELS 3 Zrotation Xrotation Yrotation
							JOINT LeftForeArm
							{
								OFFSET 29.11090 0.00000 0.00000
								CHANNELS 3 Zrotation Xrotation Yrotation
								JOINT LeftHand
								{
									OFFSET 24.65040 0.00000 0.00000
									CHANNELS 3 Zrotation Xrotation Yrotation
									JOINT LeftHandThumb1
									{
										OFFSET 5.35114 -0.85590 3.97906
										CHANNELS 3 Zrotation Xrotation Yrotation
										JOINT LeftHandThumb2
										{
											OFFSET 4.52789 0.00000 0.00000
											CHANNELS 3 Zrotation Xrotation Yrotation
											JOINT LeftHandThumb3
											{
												OFFSET 2.46977 0.00000 0.00000
												CHANNELS 3 Zrotation Xrotation Yrotation
												End site
												{
													OFFSET 0.00000 0.00000 0.00000
												}
											}
										}
									}
									JOINT LeftHandIndex1
									{
										OFFSET 14.26970 0.00000 2.88139
										CHANNELS 3 Zrotation Xrotation Yrotation
										JOINT LeftHandIndex2
										{
											OFFSET 5.48836 0.00000 0.00000
											CHANNELS 3 Zrotation Xrotation Yrotation
											JOINT LeftHandIndex3
											{
												OFFSET 3.01859 0.00000 0.00000
												CHANNELS 3 Zrotation Xrotation Yrotation
												End site
												{
													OFFSET 0.00000 0.00000 0.00000
												}
											}
										}
									}
									JOINT LeftHandMiddle1
									{
										OFFSET 14.26970 0.00000 -0.09147
										CHANNELS 3 Zrotation Xrotation Yrotation
										JOINT LeftHandMiddle2
										{
											OFFSET 6.17440 0.00000 0.00000
											CHANNELS 3 Zrotation Xrotation Yrotation
											JOINT LeftHandMiddle3
											{
												OFFSET 3.56744 0.00000 0.00000
												CHANNELS 3 Zrotation Xrotation Yrotation
												End site
												{
													OFFSET 0.00000 0.00000 0.00000
												}
											}
										}
									}
									JOINT LeftHandRing1
									{
										OFFSET 12.69180 0.00000 -3.06433
										CHANNELS 3 Zrotation Xrotation Yrotation
										JOINT LeftHandRing2
										{
											OFFSET 5.62556 0.00000 0.00000
											CHANNELS 3 Zrotation Xrotation Yrotation
											JOINT LeftHandRing3
											{
												OFFSET 3.56744 0.00000 0.00000
												CHANNELS 3 Zrotation Xrotation Yrotation
												End site
												{
													OFFSET 0.00000 0.00000 0.00000
												}
											}
										}
									}
									JOINT LeftHandPinky1
									{
										OFFSET 11.11390 0.00000 -6.03719
										CHANNELS 3 Zrotation Xrotation Yrotation
										JOINT LeftHandPinky2
										{
											OFFSET 4.52789 0.00000 0.00000
											CHANNELS 3 Zrotation Xrotation Yrotation
											JOINT LeftHandPinky3
											{
												OFFSET 2.46976 0.00000 0.00000
												CHANNELS 3 Zrotation Xrotation Yrotation
												End site
												{
													OFFSET 0.00000 0.00000 0.00000
												}
											}
										}
									}
								}
							}
						}
					}
					JOINT pCube4
					{
						OFFSET 0.00000 10.91090 1.10792
						CHANNELS 3 Zrotation Xrotation Yrotation
						End site
						{
							OFFSET 0.00000 0.00000 0.00000
						}
					}
				}
			}
		}
	}
	JOINT RightUpLeg
	{
		OFFSET -9.98441 0.00000 0.00000
		CHANNELS 3 Zrotation Xrotation Yrotation
		JOINT RightLeg
		{
			OFFSET 0.00000 -42.11790 0.00000
			CHANNELS 3 Zrotation Xrotation Yrotation
			JOINT RightFoot
			{
				OFFSET 0.00000 -45.00020 -0.00001
				CHANNELS 3 Zrotation Xrotation Yrotation
				JOINT RightForeFoot
				{
					OFFSET 0.00000 -3.74820 0.00000
					CHANNELS 3 Zrotation Xrotation Yrotation
					JOINT RightToeBase
					{
						OFFSET 0.00000 0.06325 14.43120
						CHANNELS 3 Zrotation Xrotation Yrotation
						End site
						{
							OFFSET 0.00000 0.00000 0.00000
						}
					}
				}
			}
		}
	}
	JOINT LeftUpLeg
	{
		OFFSET 9.98441 0.00000 0.00000
		CHANNELS 3 Zrotation Xrotation Yrotation
		JOINT LeftLeg
		{
			OFFSET 0.00000 -42.11800 0.00000
			CHANNELS 3 Zrotation Xrotation Yrotation
			JOINT LeftFoot
			{
				OFFSET 0.00000 -45.00070 0.00000
				CHANNELS 3 Zrotation Xrotation Yrotation
				JOINT LeftForeFoot
				{
					OFFSET 0.00000 -3.74824 0.00000
					CHANNELS 3 Zrotation Xrotation Yrotation
					JOINT LeftToeBase
					{
						OFFSET 0.00000 0.06325 14.43110
						CHANNELS 3 Zrotation Xrotation Yrotation
						End site
						{
							OFFSET 0.00000 0.00000 0.00000
						}
					}
				}
			}
		}
	}
}
MOTION
Frames: 4
Frame Time: 0.050000
0.029218631538887752 0.001607659233535768 0.009809123202253207 -0.006288865934926603 0.018029053940350256 -0.030380730285767207 1.2112848093069708 3.61589392910882 -1.4428429604728252 -0.6514258308649948 3.734098375834668 0.3415410560857683 -0.8149512424634362 -1.1747919808984273 1.5270751362262829 -0.5320716010344102 -0.8324767481285253 -0.2943256651982863 0.3619521953835182 11.843786601659032 -2.191216465420784 0.21982851972870582 -1.6152055031567087 -6.9351328636398115 1.121436232928782 -17.96580498901632 -0.5975465870079224 -6.7668678365679344 2.596463209505556 -16.179637928184913 75.62971458115724 -23.13627010491167 19.218897356981998 25.36404295505205 -1.9174865302535964 86.79602685599785 11.053397805816688 -0.24842001678853168 -1.4764640899469592 4.510047132286682 -0.16985803372313976 -1.603846212624863 -0.03120505410658632 -0.008315082789246198 -56.2508021884875 -0.04883681800355076 -0.04425388286387251 -56.229143446621414 -38.729025667935325 0.005119778061434185 -0.022706835359005143 0.027901003188191685 -0.030803272952421655 -0.014515918585133928 0.028434675524287745 0.047624656722465276 0.047374857204693574 -36.68735459770911 -0.02585303813588735 0.036341923272692825 0.012381233228189409 -0.007216670079576304 -0.005657942810187049 0.012312283647269292 -0.023231277467328507 0.009134124319257291 -19.776199790653074 -0.0024017772702514626 0.04098862353853531 0.03705325573674418 -0.02794874892301514 0.02806384488730197 -0.027924061082941407 0.013920323394679007 -0.006021942341328228 24.065503462262086 -0.018808753301959396 0.02114724154864288 28.899843951854393 0.021440941671272026 -0.02461029947618253 28.82151122180703 0.03571758686522235 -0.04067655372140486 5.40606982460956 1.5774022264803182 14.566474652986718 -72.8826107870896 -1.5589537020457611 -10.083809067339875 11.476967985822867 -10.09324587967147 -73.13419283598633 -9.385462825105291 11.573562916117087 -10.964277247745759 -0.4579762369031367 0.04341728885453838 -8.127215630625132 -0.008974735463590334 0.018465863270480918 44.54857697945516 0.016456585608914748 -0.006578275304384607 44.530093980484885 12.477147664463772 0.024685452351331235 0.041394456722551036 0.032836414530510144 0.0327199864319234 -0.04948815929588248 0.026353358127135018 -0.04277013030666018 -0.009561987531766476 11.108914106237808 0.02981283806481902 -0.03590752769481681 -0.017528105742870306 -0.0395404301998258 -0.02672400053057746 0.039882271523469716 0.0460082883937166 -0.01036191428112514 4.815473861123167 -0.045684729409277716 -0.014499080513749565 -0.021820926259571268 -0.03201035999077458 0.015178483395778361 -0.004973373220386048 0.049080233366314036 0.005202904769878317 -5.600313587768046 0.022374285641357097 -0.034752442195377146 -6.715868593275465 0.030975315380970907 0.021983135693717053 -6.708557946295398 -0.026421284406342217 0.030830050136965208 0.030870279908934508 -0.023078501793120532 0.005497632451236428 8.065123584945345 3.5129118683550447 -19.224738044932028 0.025475043576434424 10.415663435041747 -0.020060749223341338 -5.618099639480943 -15.622563835513862 3.148285663565869 0.010419205362648969 0.011740806901967894 0.01970324694267999 -0.007960736199269973 4.650211122977 0.030601180919515726 12.497976091258511 -8.256965140464315 6.837169500471097 -0.009184934892164567 46.33783004486253 -0.011795590963091906 -4.3439289640260625 -14.756851413206576 -3.8053841170808567 0.03246827562096234 0.047466978341550135 -0.015276505088988234 0.02734428882797382 -10.735377593554468 0.04548402271070609 
0.030372557785072665 -0.026732706081885382 -0.023174417833641374 0.04589824751274421 0.008490936317195994 0.04549063116339703 1.6299046788451392 3.5765885263209376 -1.4757896537223167 -0.7139903741388581 3.7872940265184707 0.34499742891894275 -0.8396237274200774 -1.1121253284920571 1.7490304712201465 -0.4774602274657882 -0.7639811314721487 -0.3243672586956925 0.49370584381286 11.935337587960323 -2.299855836704172 0.17566695709735733 -1.4739689976344796 -7.2444426463892615 1.1071831876539915 -17.909929285218166 -0.6495997679693054 -7.678249858034792 2.840415769417451 -16.338855445757535 75.25773230470473 -22.99685395340534 21.789547428126003 23.00452552560052 -3.4021385030193905 89.34925973917188 9.222733653609192 -0.24944810815767046 -0.9214963049113185 4.503349475745285 -0.11130090246995511 -1.5642176376958477 -0.005386269249175127 -0.049932664838915904 -56.221080688907996 -0.04927657646654026 -0.004664539845374682 -56.1878867781106 -38.81853547956915 0.0032109014274234924 -0.0009683011020574612 0.01644218291384769 -0.03420817913330063 0.011354873768700214 0.039467793145108676 0.030886244736170604 -0.047252526434210955 -36.666527142505636 0.04019257091937672 0.020668161181935235 -0.029405390959836034 0.028959681175785193 0.008932652263577312 -0.006730504798720049 0.046471332361784294 -0.007512617828488758 -19.744173395703616 0.017538135763406876 0.033308915290966926 -0.048564787379782474 -0.011911951194493243 -0.004552017115547152 -0.019686483217022436 0.04292054086179591 -0.019994199637628322 24.02293108686269 0.021480702578250317 0.020913108801782196 28.855394433014002 0.02248964547887122 -0.03916549714709736 28.910207641851006 -0.04123970032402518 0.012795829149619025 5.758470133280707 1.6184334227949964 14.614387548406537 -71.91770045175245 0.684047805176153 -9.457181711951028 14.514297825512854 -13.888265990341337 -78.15905957149461 -7.513496317370216 9.178253688652752 -10.599083704808235 -0.5076761901697477 0.0345766390069658 -8.145051943792044 -0.029450544646552976 -0.03161513787031744 44.59450564022549 0.023581345957477066 -0.0325784974543889 44.52116087822343 12.42346995064814 -0.016504155419679842 0.020821081617310257 0.029069929508723093 -0.0008155824547527687 0.03622808505516687 0.014310344846791308 0.021299969213679465 0.023510785782955002 11.067708950589017 0.008604268924811408 -0.005805353082625581 0.028547071982546253 0.028179502604452067 0.021329209592601636 -0.022499754890247425 -0.03212106375761793 -0.029864908182284877 4.758259817416447 0.030884495466161496 0.004701884772382025 -0.011281020708181901 0.01913136501179319 -0.016462887876563623 0.03332493758059316 -0.012290698616384745 0.013962437218962802 -5.590257749518866 0.04144248441420078 -0.020566132456493483 -6.676582100658319 0.0018021924090301533 0.016065036611346496 -6.6977034735622 0.009660592392521556 -0.017922332902377974 -0.04529206567106228 0.007820378390342561 -0.007827798950592196 8.075800329627363 3.5315312561183902 -19.255822365537206 0.04911893462769063 10.371587887940874 0.00615112548460138 -5.626855884092604 -15.655443608638528 3.229030186045343 0.013074796402234202 0.020354730818107278 0.0166531959956718 0.04525579021816876 4.662784949567657 0.01744125233715692 12.486216116980104 -8.235007829459603 6.913991710338157 0.0029526172609288144 46.37574881299766 -0.045524877724902074 -4.315370895791314 -14.751338362715305 -3.846786804106814 0.003962263560687251 0.01813420134630584 -0.0023209464620446434 -0.00684515566995865 -10.741366417919153 0.005814521093505823 
0.021534401213364737 0.04734512012693149 -0.020647807813368307 -0.04078608930732963 -0.006886535038807914 -0.04444429441089856 1.8546969087850746 3.6850827001981283 -1.5250473087899514 -0.7248235051347074 3.7799991977507252 0.42887339272039443 -0.83520923073912 -1.1982034852953583 2.007694958857826 -0.5267547841069761 -0.8495109811971421 -0.20315367733409012 0.5628930960576116 12.189602204196277 -2.27424425748476 0.15290612202197865 -1.4312576069724887 -7.2653404406178765 1.12381575716903 -17.780453245666454 -0.6519037461438026 -8.745298133021816 3.1366777025500947 -16.465077564615175 74.92948352551693 -24.909642789722586 25.546892256511082 21.53702874899573 -4.676511730836107 91.17741055685254 7.792837902225645 -0.1911691779302505 -0.40812700276853686 4.505221923147395 -0.09508878070853163 -1.583329237260359 0.005063738340432982 -0.0012427379156326607 -56.203505022436346 -0.0322448891001038 0.015512698000837547 -56.25877669636395 -38.78949110859373 0.024681364930831097 0.022167362632265687 -0.01959594518092435 0.02261925456283315 0.02452044169529777 -0.04772384024947849 0.020039726508475676 0.0070869695211797775 -36.67204427444642 -0.014266509318965363 -0.009840888243774878 0.023111242219132543 -0.03560147114632261 -0.0028545425593845828 -0.011991217147798263 -0.012027946104207167 0.03652016457281456 -19.75598567629139 0.004130442096590552 0.005542467685153139 -0.026487028115923322 0.02202184400245029 -0.01986604838489524 0.048152713940603636 0.03500750710860636 -0.04088553825355031 24.031740405370495 0.03519107493174681 -0.0018473087191046198 28.875492122864436 0.002059165688739023 -0.006303064844683897 28.895247857630412 -0.009784335791276418 -0.03077913659014949 6.160376507566984 1.6846109614120115 14.817810764958908 -71.47352129322574 0.16498683434570474 -9.466441009222136 15.385162436645771 -15.004750881320637 -81.02970740489138 -6.321748239911294 8.139733320076466 -10.636302002259551 -0.467247267964136 0.019422581755895243 -8.14056139915066 -0.04042863272780407 0.03846832722306139 44.57727088690811 -0.02556200155113117 -0.00029197874325917906 44.53592780025138 12.411792249304542 0.013540160079137156 0.019417556526446996 0.02073127104483115 -0.027020744744914952 0.026495306569998794 -0.027178184816770548 0.028204681650524536 -0.007280036071337502 11.09069140353109 0.01140956459945977 0.039271825104827615 -0.0372943096734883 0.0030738819263162417 -0.021233670157402282 -0.00017318007518610974 -0.019180225599471815 0.008549727753075224 4.753190571010861 0.006767934194243858 0.028312653976630343 -0.024696581867011208 -0.005545647615414959 7.1004488993117e-05 0.01043640974698081 0.017055779867193078 0.0012303003968885716 -5.630002379578829 -0.002787840508987429 0.03074217952165761 -6.735501653782169 -0.029318068944003527 -0.028170878941275523 -6.731486063558551 -0.022219175431341744 0.028377835142474283 0.029883674292896956 -0.017540383953627774 -0.031421306282753095 8.06296370624171 3.497815393161433 -19.20055210981944 -0.009870676492133782 10.373860254332978 0.060688913633899236 -5.666399370426364 -15.661474515432229 3.1832071406876845 -0.008617020785534675 -0.02620847725106002 0.005072106774239154 -0.032970573701947434 4.72492361765315 0.03911870820864307 12.447583072995231 -8.244797060865125 6.845011146826683 -0.04667338222586998 46.33305351667053 -0.004459945648593172 -4.351891612031122 -14.780452063764395 -3.8482082811981484 -0.010988633165178608 0.03350382775506541 0.009454894042712277 0.012626390304730367 -10.710066529899718 -0.049753976199422484 
-0.04461542294243481 -0.045351922361734964 -0.0012562408311194264 0.0005019021676371439 0.010134782231245545 -0.01668194972155453 2.089210392713178 3.7204005872991974 -1.5246487636212065 -0.7652989857963939 3.794810054659287 0.4194713519255397 -0.8369135151213969 -1.122807516062279 2.3117396862205677 -0.548698452048866 -0.9017509970484466 -0.18381729089806317 0.5728047440609392 12.50346913310152 -2.1918751856824548 0.12465366754103425 -1.3811196739643445 -7.253548253800112 1.1192596267834487 -17.760401610683903 -0.6261374786570482 -9.700912348189549 3.3237217179183687 -16.72417645826932 74.67839243791715 -27.739833355064224 29.031962243039057 20.663256455572153 -5.623992594623134 92.35588484452965 6.7104288761011945 -0.23008239330778865 0.0876547573458017 4.571194338167648 -0.09961637318849463 -1.5730332292303653 -0.04067293936495609 -7.749928806036996e-05 -56.231594621019156 0.02566676920022111 0.03791265039187547 -56.194905727791415 -38.76220605527803 0.02413644507702552 0.006780982970641067 0.03394614416326309 -0.00037272435218131645 0.045883605816329644 0.002558453743700073 0.010963864816915065 0.04955031136937375 -36.73980543592237 0.028128053058658176 -0.03322675308612424 -0.005456442542595201 0.04864632093200186 0.015125947509040265 0.00482560275348608 0.004981076469979501 -0.042490953999501854 -19.76869179708319 -0.00219423675356462 0.01838430011560577 -0.008917767049780072 0.03169373224038284 -0.03342016631652452 0.04310944934654055 -0.019143980313848903 0.04135674250204548 24.050270469936642 -0.048594406542545834 0.01952297611923012 28.854774333183112 0.013551582297021995 0.019230258853022573 28.866626632712553 0.022592208948267935 0.004386948208683906 6.672589907591086 1.774903625328606 15.069836082242345 -71.26988563965041 -2.057284568374718 -9.775991270838702 14.612273350959427 -14.261613729442507 -82.78228673519182 -5.480631813128994 7.923861841894721 -11.043519847077741 -0.5096527755741513 0.08085141555190409 -8.16602323768085 0.004314653227536208 -0.02624405563798406 44.60234856119645 0.003989459309601902 0.02089765123370774 44.52575817026879 12.475394667951988 0.012838516197642242 -0.0406651593426957 -0.006935045488820489 -0.010904062087762807 0.029747733855766265 -0.0029947296705307496 0.018823388377960694 0.025495550312851747 11.117172831792093 -0.04501427162433635 0.01736401175359984 0.025733694228634387 0.019326461101133206 -0.0005388761940629915 -0.01259833464973964 -0.019642941545759966 0.04794728690621229 4.788691813972934 0.01442906171679414 -0.010056376278318825 -0.008766789930463629 0.03858070352126814 0.021216042555638352 0.006865296471856205 0.044169318530795025 -0.030898270540800313 -5.615446905733942 0.007732838284335358 0.03866419690316842 -6.737474944160954 0.0011976279997444358 0.04644362719101347 -6.761904658717543 0.013481848616058625 -0.04009011908005593 -0.0019132894880958973 -0.023312557792668467 -0.003016112423353694 8.041419054301599 3.4447477667534523 -19.171834457754954 -0.01859039532496139 10.368861912943837 0.06186791213554896 -5.622663852065848 -15.620056225933325 3.1513637270394272 0.021378568637960664 0.03931811258698794 -0.019504036151342136 -0.010159200102086643 4.7064588170513355 0.03643386038793556 12.426481726854217 -8.23457523065996 6.889433152352495 -0.03274520972382876 46.383080418518226 0.022429062464779187 -4.352104143052062 -14.767868340613191 -3.814818554736052 -0.015652930354407395 0.017423203021824648 0.035208668623154554 0.02379561553304402 -10.711100385397572 -0.012438562467175146 
